<?xml version="1.0" encoding="utf-8"?>
<!-- Generator: Adobe Illustrator 22.1.0, SVG Export Plug-In . SVG Version: 6.00 Build 0)  -->
<svg version="1.2" baseProfile="tiny" xmlns="http://www.w3.org/2000/svg" xmlns:xlink="http://www.w3.org/1999/xlink" x="0px"
	 y="0px" viewBox="0 0 100 100" xml:space="preserve">
<g id="Document">
</g>
<g id="Content">
	<g>
		<path d="M68.5,26H82L63,6v14.5C63,23.5,65.5,26,68.5,26z"/>
		<polygon points="61,61.2 61.8,44 55.1,44 55.9,61.2 		"/>
		<path d="M44.8,50.9c1.9,0,3.5-1.6,3.5-3.4c0-1.9-1.6-3.5-3.5-3.5c-1.9,0-3.5,1.6-3.5,3.5C41.3,49.4,42.9,50.9,44.8,50.9z"/>
		<path d="M68.5,28c-4.1,0-7.5-3.4-7.5-7.5V5H21.7C19.1,5,17,7.2,17,10v80c0,2.8,2.1,5,4.7,5h56.6c2.6,0,4.7-2.2,4.7-5V28H68.5z
			 M63.1,72.9c0.7,3.4-1,8.5-4.3,10.1c-0.7,0.3-1.3,0.5-2,0.6c0.6-1.8,0.5-5.4-0.3-7.3c-0.1-0.1-0.1-0.3-0.2-0.4
			c-2,0.5-4.1,0.8-6.2,0.8c-12.2,0-22-8.7-22-19.4C28,46.7,37.8,38,50,38s22,8.7,22,19.4C72,63.7,68.5,69.4,63.1,72.9z"/>
		<circle cx="58.4" cy="68.4" r="3.6"/>
		<path d="M44.4,67.2c-1.8,0-3-0.8-3-2.1c0-3.1,6.3-2.9,6.3-9.4v-1.2h-5.5v0.8c0,4.7-7.1,4.2-7.1,10.4c0,3.4,3,6.4,8.8,6.4
			c4,0,7.1-1.6,9.2-4.1l-3.9-3C47.7,66.4,46.1,67.2,44.4,67.2z"/>
	</g>
</g>
</svg>
