<?xml version="1.0" encoding="utf-8"?>
<!-- Generator: Adobe Illustrator 22.1.0, SVG Export Plug-In . SVG Version: 6.00 Build 0)  -->
<svg version="1.2" baseProfile="tiny" xmlns="http://www.w3.org/2000/svg" xmlns:xlink="http://www.w3.org/1999/xlink" x="0px"
	 y="0px" viewBox="0 0 100 100" xml:space="preserve">
<g id="Document">
</g>
<g id="Content">
	<g>
		<path d="M68.5,26H82L63,6v14.5C63,23.5,65.5,26,68.5,26z"/>
		<path d="M68.5,28c-4.1,0-7.5-3.4-7.5-7.5V5H21.7C19.1,5,17,7.2,17,10v80c0,2.8,2.1,5,4.7,5h56.6c2.6,0,4.7-2.2,4.7-5V28H68.5z
			 M65,50h4v2h-4V50z M71,64v2h-4v-2H71z M65,64v2h-4v-2H65z M59,50h4v2h-4V50z M53,50h4v2h-4V50z M59,64v2h-4v-2H59z M47,50h4v2h-4
			V50z M53,64v2h-4v-2H53z M41,50h4v2h-4V50z M47,64v2h-4v-2H47z M35,50h4v2h-4V50z M41,64v2h-4v-2H41z M29,50h4v2h-4V50z M35,64v2
			h-4v-2H35z M25,50h2v2h-2V50z M25,54h2v4h-2V54z M25,64v-4h2v4h2v2h-4V64z M75,75H25v-4h50V75z M75,66h-2v-2h2V66z M75,62h-2v-4h2
			V62z M75,56h-2v-4h-2v-2h4V56z"/>
	</g>
</g>
</svg>
