<?xml version="1.0" encoding="utf-8"?>
<!-- Generator: Adobe Illustrator 22.1.0, SVG Export Plug-In . SVG Version: 6.00 Build 0)  -->
<svg version="1.2" baseProfile="tiny" xmlns="http://www.w3.org/2000/svg" xmlns:xlink="http://www.w3.org/1999/xlink" x="0px"
	 y="0px" viewBox="0 0 100 100" xml:space="preserve">
<g id="Document">
</g>
<g id="Content">
	<g>
		<path d="M68.5,26H82L63,6v14.5C63,23.5,65.5,26,68.5,26z"/>
		<path d="M56.4,76l-3.2-8.9c1.1-0.9,1.9-2.4,1.9-4c0-2.8-2.3-5.1-5.1-5.1s-5.1,2.3-5.1,5.1c0,1.6,0.7,3,1.9,4L43.6,76H56.4z"/>
		<path d="M68.5,28c-4.1,0-7.5-3.4-7.5-7.5V5H21.7C19.1,5,17,7.2,17,10v80c0,2.8,2.1,5,4.7,5h56.6c2.6,0,4.7-2.2,4.7-5V28H68.5z
			 M66,78.1c0,2.1-1.7,3.9-3.9,3.9H37.9c-2.1,0-3.9-1.7-3.9-3.9V54h32V78.1z M58,52c0-4.4-3.6-8-8-8s-8,3.6-8,8h-8
			c0-8.8,7.2-16,16-16s16,7.2,16,16H58z"/>
	</g>
</g>
</svg>
