<?xml version="1.0" encoding="utf-8"?>
<!-- Generator: Adobe Illustrator 22.1.0, SVG Export Plug-In . SVG Version: 6.00 Build 0)  -->
<svg version="1.2" baseProfile="tiny" xmlns="http://www.w3.org/2000/svg" xmlns:xlink="http://www.w3.org/1999/xlink" x="0px"
	 y="0px" viewBox="0 0 100 100" xml:space="preserve">
<g id="Document">
</g>
<g id="Content">
	<g>
		<path d="M68.5,26H82L63,6v14.5C63,23.5,65.5,26,68.5,26z"/>
		<ellipse cx="35.3" cy="48" rx="3.8" ry="3.7"/>
		<polygon points="52,46.4 48.3,46.4 48.3,40.5 44.6,40.5 44.6,55.8 48.3,55.8 48.3,49.3 52,49.3 52,55.8 55.7,55.8 55.7,40.5 
			52,40.5 		"/>
		<polygon points="66.3,40.5 63.1,40.5 58.1,43.5 59.7,45.8 62.8,44 62.8,53.1 59.1,53.1 59.1,55.8 69.2,55.8 69.2,53.1 66.3,53.1 
					"/>
		<path d="M68.5,28c-4.1,0-7.5-3.4-7.5-7.5V5H21.7C19.1,5,17,7.2,17,10v80c0,2.8,2.1,5,4.7,5h56.6c2.6,0,4.7-2.2,4.7-5V28H68.5z
			 M70.2,79.5L63.6,87c-0.6,0.7-1.4,1-2.3,1H38c-1.7,0-3.1-1.3-3.1-3V70c0-1.7,1.4-3,3.1-3h23.3c0.9,0,1.7,0.4,2.3,1l6.6,7.5
			C71.2,76.7,71.2,78.3,70.2,79.5z M75,57.3c0,2.1-1.7,3.7-3.8,3.7H37.1c-1.1,0-2.2-0.5-2.9-1.3l-8.2-9.3c-1.2-1.4-1.2-3.4,0-4.8
			l8.2-9.3c0.7-0.8,1.8-1.3,2.9-1.3h34.1c2.1,0,3.8,1.7,3.8,3.7V57.3z"/>
		<path d="M47.9,70H43v15.5h3.7v-5.1h1.7c3.7,0,6.1-1.7,6.1-5.3C54.5,71.7,52.1,70,47.9,70z M48.1,77.7h-1.4v-5h1.2
			c1.9,0,2.8,0.8,2.8,2.4C50.7,76.8,49.7,77.7,48.1,77.7z"/>
		<path d="M62.8,74.5c-1.7,0-3.1,1.3-3.1,3c0,1.7,1.4,3,3.1,3s3.1-1.3,3.1-3C65.8,75.9,64.5,74.5,62.8,74.5z"/>
	</g>
</g>
</svg>
