<?xml version="1.0" encoding="utf-8"?>
<!-- Generator: Adobe Illustrator 22.1.0, SVG Export Plug-In . SVG Version: 6.00 Build 0)  -->
<svg version="1.2" baseProfile="tiny" xmlns="http://www.w3.org/2000/svg" xmlns:xlink="http://www.w3.org/1999/xlink" x="0px"
	 y="0px" viewBox="0 0 100 100" xml:space="preserve">
<g id="Document">
</g>
<g id="Content">
	<g>
		<path d="M68.5,26H82L63,6v14.5C63,23.5,65.5,26,68.5,26z"/>
		<path d="M52.4,55.1c0-1-0.2-1.8-0.5-2.5c-0.4-0.7-1.1-1-2.1-1c-0.5,0-0.9,0.1-1.1,0.3c-0.2,0.2-0.3,0.5-0.3,1v5.9
			c1.6,0,2.7-0.3,3.2-0.8S52.4,56.4,52.4,55.1z"/>
		<polygon points="31.7,52.7 28.9,61.9 34.6,61.9 31.8,52.7 		"/>
		<path d="M68.5,28c-4.1,0-7.5-3.4-7.5-7.5V5H21.7C19.1,5,17,7.2,17,10v80c0,2.8,2.1,5,4.7,5h56.6c2.6,0,4.7-2.2,4.7-5V28H68.5z
			 M36.6,68.4l-1.4-4.5h-6.9l-1.4,4.5h-2.5l5.8-18h3.1l5.8,18H36.6z M55.6,67.1c-1.3,0.9-3.1,1.3-5.3,1.3h-8.4v-0.7
			c0.7,0,1.2-0.1,1.5-0.3c0.5-0.3,0.8-0.8,0.8-1.6V53.3c0-0.8-0.2-1.3-0.7-1.5c-0.3-0.2-0.8-0.3-1.6-0.3v-0.7H50
			c1.6,0,2.8,0.2,3.9,0.5c1.9,0.7,2.9,1.9,2.9,3.7c0,1.1-0.4,1.9-1.2,2.6c-0.8,0.6-1.6,1-2.6,1.2V59c1,0.2,1.8,0.5,2.5,0.9
			c1.4,0.9,2.1,2.1,2.1,3.6C57.6,65,57,66.2,55.6,67.1z M75.1,55.6c-0.5,1-0.9,2-1.1,2.6c-0.1,0.5-0.5,0.8-1.1,0.4
			c-0.6-0.4-1-1-1-1.8c0-0.3,0.1-0.7,0.2-1.1c0.1-0.4,0.3-0.9,0.5-1.3c0.4-1,0.7-1.9,0.4-2.3c-0.7-0.7-4.8,1.8-7.2,5.6
			c-1.3,2-1.8,4.4-1.8,6.1c0,2.5,1.1,3.6,2.1,3.6c1.6,0,3.6-1.8,5.3-5c0.2-0.4,0.9-0.6,1.1,0.1c0.1,0.3,0.2,0.7,0.2,0.9
			c0,1.7-1.6,3.3-2.6,4.1c-1.2,0.8-2.5,1.2-3.7,1.2c-0.9,0-1.8-0.2-2.5-0.6c-1.4-0.7-2.5-2.5-2.6-4.9c-0.1-5.8,5-11,8.3-12.5
			c0.7-0.3,1.6-0.5,2.3-0.5c0.7,0,1.4,0.2,1.9,0.6c1,0.9,1.7,2,1.7,3.1C75.5,54.4,75.4,55,75.1,55.6z"/>
		<path d="M51.5,60c-0.7-0.4-1.7-0.5-3.1-0.5V66c0,0.5,0.1,0.8,0.2,1c0.2,0.4,0.6,0.6,1.2,0.6c1.2,0,2.1-0.3,2.6-1
			c0.5-0.7,0.7-1.6,0.7-2.9C53.1,61.8,52.6,60.6,51.5,60z"/>
	</g>
</g>
</svg>
