<?xml version="1.0" encoding="utf-8"?>
<!-- Generator: Adobe Illustrator 22.1.0, SVG Export Plug-In . SVG Version: 6.00 Build 0)  -->
<svg version="1.2" baseProfile="tiny" xmlns="http://www.w3.org/2000/svg" xmlns:xlink="http://www.w3.org/1999/xlink" x="0px"
	 y="0px" viewBox="0 0 100 100" xml:space="preserve">
<g id="Document">
</g>
<g id="Content">
	<g>
		<path d="M68.5,26H82L63,6v14.5C63,23.5,65.5,26,68.5,26z"/>
		<path d="M68.5,28c-4.1,0-7.5-3.4-7.5-7.5V5H21.7C19.1,5,17,7.2,17,10v80c0,2.8,2.1,5,4.7,5h56.6c2.6,0,4.7-2.2,4.7-5V28H68.5z
			 M76,85H60v-8h3v-8H39v8h3v8H26v-8h5v-8h4v-8h4v-8h4v-8h4v-8h8v8h4v8h4v8h4v8h4v8h5V85z"/>
		<rect x="47" y="53" width="8" height="8"/>
	</g>
</g>
</svg>
