<?xml version="1.0" encoding="utf-8"?>
<!-- Generator: Adobe Illustrator 22.1.0, SVG Export Plug-In . SVG Version: 6.00 Build 0)  -->
<svg version="1.2" baseProfile="tiny" xmlns="http://www.w3.org/2000/svg" xmlns:xlink="http://www.w3.org/1999/xlink" x="0px"
	 y="0px" viewBox="0 0 100 100" xml:space="preserve">
<g id="Document">
</g>
<g id="Content">
	<g>
		<path d="M68.5,26H82L63,6v14.5C63,23.5,65.5,26,68.5,26z"/>
		<rect x="40" y="43" width="24" height="4"/>
		<path d="M68.5,28c-4.1,0-7.5-3.4-7.5-7.5V5H21.7C19.1,5,17,7.2,17,10v80c0,2.8,2.1,5,4.7,5h56.6c2.6,0,4.7-2.2,4.7-5V28H68.5z
			 M67,43v4v4v21.5h0c0,1.9-0.9,4.1-2.7,5.8c-3.1,2.9-7.5,3.5-9.8,1.3s-1.8-6.5,1.3-9.4c2.5-2.4,5.8-3.2,8.3-2.2V51H40v21.5h0
			c0,1.9-0.9,4.1-2.7,5.8c-3.1,2.9-7.5,3.5-9.8,1.3c-2.3-2.3-1.8-6.5,1.3-9.4c2.5-2.4,5.8-3.2,8.3-2.2V51v-4v-4v-8h3h24h3V43z"/>
	</g>
</g>
</svg>
