<?xml version="1.0" encoding="utf-8"?>
<!-- Generator: Adobe Illustrator 22.1.0, SVG Export Plug-In . SVG Version: 6.00 Build 0)  -->
<svg version="1.2" baseProfile="tiny" xmlns="http://www.w3.org/2000/svg" xmlns:xlink="http://www.w3.org/1999/xlink" x="0px"
	 y="0px" viewBox="0 0 100 100" xml:space="preserve">
<g id="Document">
</g>
<g id="Content">
	<g>
		<path d="M68.5,26H82L63,6v14.5C63,23.5,65.5,26,68.5,26z"/>
		<path d="M68.5,28c-4.1,0-7.5-3.4-7.5-7.5V5H21.7C19.1,5,17,7.2,17,10v80c0,2.8,2.1,5,4.7,5h56.6c2.6,0,4.7-2.2,4.7-5V28H68.5z
			 M74.5,74.8c-0.4,0.4-0.9,0.6-1.5,0.6c-0.5,0-1-0.2-1.4-0.5l-7.5-7.1L57,75.4c-0.4,0.4-0.9,0.6-1.5,0.6c-0.5,0-1-0.2-1.4-0.5
			c-0.8-0.8-0.8-2-0.1-2.8l7.1-7.5L53.6,58c-0.8-0.8-0.8-2-0.1-2.8c0.8-0.8,2-0.8,2.8-0.1l7.5,7.1l7.1-7.5c0.8-0.8,2-0.8,2.8-0.1
			s0.8,2,0.1,2.8l-7.1,7.5l7.5,7.1C75.2,72.8,75.2,74,74.5,74.8z M73,46H50.6l-9.9,31.2c-0.5,1.5-1.7,2.5-3.2,2.8
			c-0.2,0-0.5,0.1-0.7,0.1c-1.3,0-2.5-0.6-3.3-1.6l-0.2-0.2l-8.1-14.9c-0.5-1-0.2-2.2,0.8-2.7c1-0.5,2.2-0.2,2.7,0.8l8,14.7
			c0.1,0,0.1,0,0.1,0l9.8-31.1c0.5-1.7,2.1-2.8,3.9-2.8H73c1.1,0,2,0.9,2,2S74.1,46,73,46z"/>
	</g>
</g>
</svg>
