<?xml version="1.0" encoding="utf-8"?>
<!-- Generator: Adobe Illustrator 22.1.0, SVG Export Plug-In . SVG Version: 6.00 Build 0)  -->
<svg version="1.2" baseProfile="tiny" xmlns="http://www.w3.org/2000/svg" xmlns:xlink="http://www.w3.org/1999/xlink" x="0px"
	 y="0px" viewBox="0 0 100 100" xml:space="preserve">
<g id="Document">
</g>
<g id="Content">
	<g>
		<path d="M68.5,26H82L63,6v14.5C63,23.5,65.5,26,68.5,26z"/>
		<path d="M68.5,28c-4.1,0-7.5-3.4-7.5-7.5V5H21.7C19.1,5,17,7.2,17,10v80c0,2.8,2.1,5,4.7,5h56.6c2.6,0,4.7-2.2,4.7-5V28H68.5z
			 M64,78H26c-0.6,0-1-0.4-1-1c0-0.6,0.4-1,1-1h38c0.6,0,1,0.4,1,1C65,77.6,64.6,78,64,78z M74,72H26c-0.6,0-1-0.4-1-1
			c0-0.6,0.4-1,1-1h48c0.6,0,1,0.4,1,1C75,71.6,74.6,72,74,72z M26,64h28c0.6,0,1,0.4,1,1c0,0.6-0.4,1-1,1H26c-0.6,0-1-0.4-1-1
			C25,64.4,25.4,64,26,64z M25,59c0-0.6,0.4-1,1-1h38c0.6,0,1,0.4,1,1c0,0.6-0.4,1-1,1H26C25.4,60,25,59.6,25,59z M75.4,51.9
			C75.2,52,75.1,52,75,52c-0.4,0-0.8-0.2-0.9-0.6l-3.2-8.5l-3.2,8.5c-0.1,0.4-0.5,0.6-0.9,0.6s-0.8-0.3-0.9-0.6l-3.2-8.5l-3.2,8.5
			c-0.1,0.4-0.5,0.6-0.9,0.6s-0.8-0.3-0.9-0.6l-3.2-8.5l-3.2,8.5C50.8,51.7,50.4,52,50,52s-0.8-0.3-0.9-0.6l-3.2-8.5l-3.2,8.5
			c-0.1,0.4-0.5,0.6-0.9,0.6s-0.8-0.3-0.9-0.6l-3.2-8.5l-3.2,8.5c-0.1,0.4-0.5,0.6-0.9,0.6s-0.8-0.3-0.9-0.6l-3.2-8.5l-3.2,8.5
			c-0.2,0.5-0.8,0.8-1.3,0.6c-0.5-0.2-0.8-0.8-0.6-1.3l4.2-11c0.1-0.4,0.5-0.6,0.9-0.6s0.8,0.3,0.9,0.6l3.2,8.5l3.2-8.5
			c0.1-0.4,0.5-0.6,0.9-0.6s0.8,0.3,0.9,0.6l3.2,8.5l3.2-8.5c0.1-0.4,0.5-0.6,0.9-0.6s0.8,0.3,0.9,0.6l3.2,8.5l3.2-8.5
			c0.1-0.4,0.5-0.6,0.9-0.6s0.8,0.3,0.9,0.6l3.2,8.5l3.2-8.5c0.1-0.4,0.5-0.6,0.9-0.6s0.8,0.3,0.9,0.6l3.2,8.5l3.2-8.5
			c0.1-0.4,0.5-0.6,0.9-0.6s0.8,0.3,0.9,0.6l4.2,11C76.1,51.2,75.9,51.7,75.4,51.9z"/>
	</g>
</g>
</svg>
