<?xml version="1.0" encoding="utf-8"?>
<!-- Generator: Adobe Illustrator 22.1.0, SVG Export Plug-In . SVG Version: 6.00 Build 0)  -->
<svg version="1.2" baseProfile="tiny" xmlns="http://www.w3.org/2000/svg" xmlns:xlink="http://www.w3.org/1999/xlink" x="0px"
	 y="0px" viewBox="0 0 100 100" xml:space="preserve">
<g id="Document">
</g>
<g id="Content">
	<g>
		<path d="M68.5,26H82L63,6v14.5C63,23.5,65.5,26,68.5,26z"/>
		<rect x="63" y="72" width="10" height="4"/>
		<rect x="51" y="60" width="10" height="4"/>
		<rect x="51" y="54" width="10" height="4"/>
		<rect x="51" y="48" width="10" height="4"/>
		<rect x="63" y="48" width="10" height="4"/>
		<rect x="63" y="54" width="10" height="4"/>
		<rect x="63" y="66" width="10" height="4"/>
		<rect x="63" y="60" width="10" height="4"/>
		<rect x="51" y="72" width="10" height="4"/>
		<rect x="39" y="72" width="10" height="4"/>
		<path d="M68.5,28c-4.1,0-7.5-3.4-7.5-7.5V5H21.7C19.1,5,17,7.2,17,10v80c0,2.8,2.1,5,4.7,5h56.6c2.6,0,4.7-2.2,4.7-5V28H68.5z
			 M75,78H39H29h-4v-2V41v-1h50V78z"/>
		<rect x="39" y="66" width="10" height="4"/>
		<rect x="39" y="60" width="10" height="4"/>
		<rect x="51" y="66" width="10" height="4"/>
		<rect x="39" y="48" width="10" height="4"/>
		<rect x="39" y="54" width="10" height="4"/>
	</g>
</g>
</svg>
