<?xml version="1.0" encoding="utf-8"?>
<!-- Generator: Adobe Illustrator 22.1.0, SVG Export Plug-In . SVG Version: 6.00 Build 0)  -->
<svg version="1.2" baseProfile="tiny" xmlns="http://www.w3.org/2000/svg" xmlns:xlink="http://www.w3.org/1999/xlink" x="0px"
	 y="0px" viewBox="0 0 100 100" xml:space="preserve">
<g id="Document">
</g>
<g id="Content">
	<g>
		<path fill="#FFFFFF" d="M68.5,26H82L63,6v14.5C63,23.5,65.5,26,68.5,26z"/>
		<path fill="#FFFFFF" d="M64.5,45.1h-1.2v4.6h1.4c1.6,0,2.5-0.7,2.5-2.4C67.2,45.7,66.3,45.1,64.5,45.1z"/>
		<path fill="#FFFFFF" d="M34.3,44.8c-1.8,0-2.5,1.7-2.5,5.6c0,3.9,0.7,5.6,2.5,5.6c1.8,0,2.5-1.7,2.5-5.6
			C36.8,46.5,36.1,44.8,34.3,44.8z"/>
		<path fill="#FFFFFF" d="M68.5,28c-4.1,0-7.5-3.4-7.5-7.5V5H21.7C19.1,5,17,7.2,17,10v80c0,2.8,2.1,5,4.7,5h56.6
			c2.6,0,4.7-2.2,4.7-5V28H68.5z M22,10h14v4H26v10h-4V10z M36,89H22V75h4v10h10V89z M34.3,58.7c-4.2,0-6.4-3.2-6.4-8.4
			c0-5.1,2.2-8.4,6.4-8.4c4.2,0,6.4,3.2,6.4,8.4C40.7,55.4,38.5,58.7,34.3,58.7z M50.9,58.7c-4.4,0-7.4-2.9-7.4-8.4
			c0-5.3,3.2-8.3,7.5-8.3c2.3,0,3.8,0.7,5.2,1.8L54.3,46c-0.9-0.7-1.8-1.1-3-1.1c-2.2,0-3.7,1.6-3.7,5.5c0,3.8,1.5,5.5,3.7,5.5
			c1.6,0,2.6-0.6,3.4-1.3l1.7,2.2C55.2,57.8,53.5,58.7,50.9,58.7z M63.3,52.3v6.1h-3.8V42.4h5c4.3,0,6.6,1.5,6.6,4.9
			c0,2.3-1.4,3.7-3.2,4.4l4.2,6.7h-4.3l-3.4-6.1H63.3z M79,89H65v-4h10V75h4V89z"/>
	</g>
</g>
</svg>
