<?xml version="1.0" encoding="utf-8"?>
<!-- Generator: Adobe Illustrator 22.1.0, SVG Export Plug-In . SVG Version: 6.00 Build 0)  -->
<svg version="1.2" baseProfile="tiny" xmlns="http://www.w3.org/2000/svg" xmlns:xlink="http://www.w3.org/1999/xlink" x="0px"
	 y="0px" viewBox="0 0 100 100" xml:space="preserve">
<g id="Document">
</g>
<g id="Content">
	<g>
		<path fill="#FFFFFF" d="M68.5,26H82L63,6v14.5C63,23.5,65.5,26,68.5,26z"/>
		<ellipse fill="#FFFFFF" cx="35.3" cy="75" rx="3.8" ry="3.7"/>
		<polygon fill="#FFFFFF" points="55.1,62 58.4,58.7 45.3,45.7 58.4,32.6 54.4,28.7 41.4,41.7 28.3,28.7 24.4,32.6 37.4,45.7 
			24.4,58.7 28.3,62.7 41.4,49.6 53.7,62 		"/>
		<path fill="#FFFFFF" d="M52.8,42.5c-1.7,0-3.1,1.3-3.1,3c0,1.7,1.4,3,3.1,3c1.7,0,3.1-1.3,3.1-3C55.9,43.9,54.5,42.5,52.8,42.5z"
			/>
		<path fill="#FFFFFF" d="M68.5,28c-4.1,0-7.5-3.4-7.5-7.5V5H21.7C19.1,5,17,7.2,17,10v80c0,2.8,2.1,5,4.7,5h56.6
			c2.6,0,4.7-2.2,4.7-5V28H68.5z M75,84.3c0,2.1-1.7,3.7-3.8,3.7H37.1c-1.1,0-2.2-0.5-2.9-1.3l-8.2-9.3c-1.2-1.4-1.2-3.4,0-4.8
			l8.2-9.3c0.7-0.8,1.8-1.3,2.9-1.3h13.8l-6-6h-7.1l-8.1,8.1l-1.4,1.4l-1.4-1.4l-3.9-3.9l-1.4-1.4l1.4-1.4l2.6-2.6
			C25.2,54.2,25,53.6,25,53V38c0-0.5,0.2-1.1,0.4-1.5L22.9,34l-1.4-1.4l1.4-1.4l3.9-3.9l1.4-1.4l1.4,1.4l7.7,7.7h7.8l7.7-7.7
			l1.4-1.4l1.4,1.4l3.9,3.9l1.4,1.4L59.8,34l-4.2,4.2l4.7,5.3c1,1.1,1,2.8,0,3.9L55.4,53l4.4,4.4l1.4,1.4l-1.4,1.4L57.9,62h13.2
			c2.1,0,3.8,1.7,3.8,3.7V84.3z M73,59l-5-8.6h3V47h-6v-4h10v7.4h3L73,59z"/>
		<polygon fill="#FFFFFF" points="66.3,67.5 63.1,67.5 58.1,70.5 59.7,72.8 62.8,71 62.8,80.1 59.1,80.1 59.1,82.8 69.2,82.8 
			69.2,80.1 66.3,80.1 		"/>
		<polygon fill="#FFFFFF" points="52,73.4 48.3,73.4 48.3,67.5 44.6,67.5 44.6,82.8 48.3,82.8 48.3,76.3 52,76.3 52,82.8 55.7,82.8 
			55.7,67.5 52,67.5 		"/>
	</g>
</g>
</svg>
