<?xml version="1.0" encoding="utf-8"?>
<!-- Generator: Adobe Illustrator 22.1.0, SVG Export Plug-In . SVG Version: 6.00 Build 0)  -->
<svg version="1.2" baseProfile="tiny" xmlns="http://www.w3.org/2000/svg" xmlns:xlink="http://www.w3.org/1999/xlink" x="0px"
	 y="0px" viewBox="0 0 100 100" xml:space="preserve">
<g id="Document">
</g>
<g id="Content">
	<g>
		<path fill="#FFFFFF" d="M68.5,26H82L63,6v14.5C63,23.5,65.5,26,68.5,26z"/>
		<path fill="#FFFFFF" d="M68.5,28c-4.1,0-7.5-3.4-7.5-7.5V5H21.7C19.1,5,17,7.2,17,10v80c0,2.8,2.1,5,4.7,5h56.6
			c2.6,0,4.7-2.2,4.7-5V28H68.5z M37,44.2c0-0.7,0.6-1.2,1.2-1.2h27.9c0.7,0,1.2,0.6,1.2,1.2v1.5c0,0.7-0.6,1.2-1.2,1.2H38.2
			c-0.7,0-1.2-0.6-1.2-1.2V44.2z M37,54.2c0-0.7,0.6-1.2,1.2-1.2h20.3c0.7,0,1.2,0.6,1.2,1.2v1.5c0,0.7-0.6,1.2-1.2,1.2H38.2
			c-0.7,0-1.2-0.6-1.2-1.2V54.2z M29,78c-1.7,0-3-1.3-3-3s1.3-3,3-3s3,1.3,3,3S30.7,78,29,78z M29,68c-1.7,0-3-1.3-3-3s1.3-3,3-3
			s3,1.3,3,3S30.7,68,29,68z M29,58c-1.7,0-3-1.3-3-3s1.3-3,3-3s3,1.3,3,3S30.7,58,29,58z M29,48c-1.7,0-3-1.3-3-3s1.3-3,3-3
			s3,1.3,3,3S30.7,48,29,48z M67.4,75.8c0,0.7-0.6,1.2-1.2,1.2H38.2c-0.7,0-1.2-0.6-1.2-1.2v-1.5c0-0.7,0.6-1.2,1.2-1.2h27.9
			c0.7,0,1.2,0.6,1.2,1.2V75.8z M75,65.8c0,0.7-0.6,1.2-1.2,1.2H38.2c-0.7,0-1.2-0.6-1.2-1.2v-1.5c0-0.7,0.6-1.2,1.2-1.2h35.5
			c0.7,0,1.2,0.6,1.2,1.2V65.8z"/>
	</g>
</g>
</svg>
