<?xml version="1.0" encoding="utf-8"?>
<!-- Generator: Adobe Illustrator 22.1.0, SVG Export Plug-In . SVG Version: 6.00 Build 0)  -->
<svg version="1.2" baseProfile="tiny" xmlns="http://www.w3.org/2000/svg" xmlns:xlink="http://www.w3.org/1999/xlink" x="0px"
	 y="0px" viewBox="0 0 100 100" xml:space="preserve">
<g id="Document">
</g>
<g id="Content">
	<g>
		<path fill="#FFFFFF" d="M68.5,26H82L63,6v14.5C63,23.5,65.5,26,68.5,26z"/>
		<path fill="#FFFFFF" d="M68.5,28c-4.1,0-7.5-3.4-7.5-7.5V5H21.7C19.1,5,17,7.2,17,10v80c0,2.8,2.1,5,4.7,5h56.6
			c2.6,0,4.7-2.2,4.7-5V28H68.5z M65,49h4v2h-4V49z M59,49h4v2h-4V49z M53,49h4v2h-4V49z M47,49h4v2h-4V49z M41,49h4v2h-4V49z
			 M35,49h4v2h-4V49z M29,49h4v2h-4V49z M27,85h-2v-2h2V85z M27,81h-2v-4h2V81z M27,75h-2v-4h2V75z M27,69h-2v-4h2V69z M27,63h-2v-4
			h2V63z M27,57h-2v-4h2V57z M27,51h-2v-2h2V51z M33,85h-4v-2h4V85z M39,85h-4v-2h4V85z M45,85h-4v-2h4V85z M43.9,78.4
			C43.8,78.7,43.4,79,43,79s-0.8-0.3-0.9-0.6L40,72.8l-2.1,5.5C37.8,78.7,37.4,79,37,79s-0.8-0.3-0.9-0.6L34,72.8l-2.4,6.4l-1.9-0.7
			l3.4-8.9c0.1-0.4,0.5-0.6,0.9-0.6s0.8,0.3,0.9,0.6l2.1,5.5l2.1-5.5c0.1-0.4,0.5-0.6,0.9-0.6s0.8,0.3,0.9,0.6l2.1,5.5l2.1-5.5
			c0.1-0.4,0.5-0.6,0.9-0.6s0.8,0.3,0.9,0.6l3.4,8.9l-1.9,0.7L46,72.8L43.9,78.4z M51,85h-4v-2h4V85z M49.9,64.4
			C49.8,64.7,49.4,65,49,65s-0.8-0.3-0.9-0.6L46,58.8l-2.1,5.5C43.8,64.7,43.4,65,43,65s-0.8-0.3-0.9-0.6L40,58.8l-2.1,5.5
			C37.8,64.7,37.4,65,37,65s-0.8-0.3-0.9-0.6L34,58.8l-2.4,6.4l-1.9-0.7l3.4-8.9c0.1-0.4,0.5-0.6,0.9-0.6s0.8,0.3,0.9,0.6l2.1,5.5
			l2.1-5.5c0.1-0.4,0.5-0.6,0.9-0.6s0.8,0.3,0.9,0.6l2.1,5.5l2.1-5.5c0.1-0.4,0.5-0.6,0.9-0.6s0.8,0.3,0.9,0.6l2.1,5.5l2.1-5.5
			c0.1-0.4,0.5-0.6,0.9-0.6s0.8,0.3,0.9,0.6l2.1,5.5l2.1-5.5c0.1-0.4,0.5-0.6,0.9-0.6s0.8,0.3,0.9,0.6l2.1,5.5l2.1-5.5
			c0.1-0.4,0.5-0.6,0.9-0.6s0.8,0.3,0.9,0.6l3.4,8.9l-1.9,0.7L64,58.8l-2.1,5.5C61.8,64.7,61.4,65,61,65s-0.8-0.3-0.9-0.6L58,58.8
			l-2.1,5.5C55.8,64.7,55.4,65,55,65s-0.8-0.3-0.9-0.6L52,58.8L49.9,64.4z M57,85h-4v-2h4V85z M63,85h-4v-2h4V85z M61.9,78.4
			C61.8,78.7,61.4,79,61,79s-0.8-0.3-0.9-0.6L58,72.8l-2.4,6.4l-1.9-0.7l3.4-8.9c0.1-0.4,0.5-0.6,0.9-0.6s0.8,0.3,0.9,0.6l2.1,5.5
			l2.1-5.5c0.1-0.4,0.5-0.6,0.9-0.6s0.8,0.3,0.9,0.6l2.1,5.5l2.4-6.4l1.9,0.7l-3.4,8.9C67.8,78.7,67.4,79,67,79s-0.8-0.3-0.9-0.6
			L64,72.8L61.9,78.4z M69,85h-4v-2h4V85z M75,83v2h-4v-2h2v-4h2V83z M75,77h-2v-4h2V77z M75,71h-2v-4h2V71z M75,65h-2v-4h2V65z
			 M75,59h-2v-4h2V59z M75,53h-2v-2h-2v-2h4V53z"/>
	</g>
</g>
</svg>
