<?xml version="1.0" encoding="utf-8"?>
<!-- Generator: Adobe Illustrator 22.1.0, SVG Export Plug-In . SVG Version: 6.00 Build 0)  -->
<svg version="1.2" baseProfile="tiny" xmlns="http://www.w3.org/2000/svg" xmlns:xlink="http://www.w3.org/1999/xlink" x="0px"
	 y="0px" viewBox="0 0 100 100" xml:space="preserve">
<g id="Document">
</g>
<g id="Content">
	<g>
		<path fill="#FFFFFF" d="M68.5,26H82L63,6v14.5C63,23.5,65.5,26,68.5,26z"/>
		<path fill="#FFFFFF" d="M68.5,28c-4.1,0-7.5-3.4-7.5-7.5V5H21.7C19.1,5,17,7.2,17,10v80c0,2.8,2.1,5,4.7,5h56.6
			c2.6,0,4.7-2.2,4.7-5V28H68.5z M63.5,62v2h-3.9v-2H63.5z M25,38c0-1.7,1.4-3,3.1-3h23.3c0.9,0,1.7,0.4,2.3,1l6.6,7.5
			c1,1.1,1,2.8,0,3.9L53.7,55c-0.6,0.7-1.4,1-2.3,1H28.1c-1.7,0-3.1-1.3-3.1-3V38z M57.6,62v2h-3.9v-2H57.6z M51.6,62v2h-3.9v-2
			H51.6z M45.7,62v2h-3.9v-2H45.7z M30.9,69l-2.6,2.9l-1.5-1.3l2.6-2.9L30.9,69z M30.8,66.2l2.3-2.6c0.1-0.1,0.3-0.3,0.4-0.4
			l1.3,1.5c-0.1,0.1-0.2,0.2-0.2,0.2l-2.3,2.6L30.8,66.2z M30.2,75.5c0-1.6,0.9-3.2,2.4-4l1,1.7c-0.8,0.5-1.3,1.3-1.3,2.2H30.2
			L30.2,75.5z M32.6,76.8c0.5,0.8,1.4,1.3,2.3,1.3l0,1.6l0,0.4c0,0,0,0,0,0c-1.7,0-3.2-0.9-4.1-2.2L32.6,76.8z M34.9,72.9l0-1.9
			l0-0.1c0,0,0,0,0,0c1.7,0,3.2,0.8,4,2.2l-1.7,1.1C36.7,73.4,35.9,72.9,34.9,72.9z M36.6,64c-0.2,0-0.4,0-0.5,0.1l-0.4-2
			C36,62,36.3,62,36.6,62h3.2v2H36.6z M24,75.5c0-1.1,0.4-2.2,1.1-3l0.4-0.4l1.5,1.3l-0.4,0.4c-0.4,0.5-0.6,1.1-0.6,1.7
			c0,0.2,0,0.4,0.1,0.6l-1.9,0.5C24,76.2,24,75.9,24,75.5z M25.3,78.7l1.5-1.3l2.6,2.9l-1.5,1.3L25.3,78.7z M29.2,83.1l1.5-1.3
			l2.6,2.9L31.8,86L29.2,83.1z M37.5,89h-0.9c0,0,0,0,0,0c-1.3,0-2.5-0.5-3.4-1.5l1.4-1.4c0.5,0.5,1.2,0.8,2,0.8c0,0,0,0,0,0h0.9V89
			z M37.3,79.5l-1-1.7c0.8-0.5,1.3-1.3,1.3-2.2l1.7,0l0.3,0C39.6,77.1,38.7,78.6,37.3,79.5z M43.4,89h-3.9v-2h3.9V89z M49.4,89h-3.9
			v-2h3.9V89z M47.4,76.7V83h-3.6V68.3h3.6V74h3.6v-5.7h3.6V83h-3.6v-6.3H47.4z M55.3,89h-3.9v-2h3.9V89z M61.2,89h-3.9v-2h3.9V89z
			 M67.1,89h-3.9v-2h3.9V89z M67.5,83h-9.7v-2.6h3.6v-8.8l-3,1.8l-1.5-2.2l4.8-2.9h3.1v12.2h2.8V83z M65.4,64v-2h3.9l0,2H65.4z
			 M69.4,89h-0.3v-2h0.3c0.9,0,1.8-0.4,2.3-1.2l1.7,1.1C72.4,88.2,71,89,69.4,89z M74.1,84.6l-2-0.1l0-0.1v-3.8h2L74.1,84.6z
			 M74.1,78.6h-2v-3.9h2V78.6z M74.1,72.7h-2v-3.9h2V72.7z M74.1,66.8h-2v-0.2c0-0.9-0.5-1.7-1.3-2.2l1-1.7c1.4,0.8,2.3,2.3,2.3,3.9
			V66.8z M73,59l-5-8.6h3V47h-6v-4h10v7.4h3L73,59z"/>
		<path fill="#FFFFFF" d="M52.8,48.5c1.7,0,3.1-1.3,3.1-3c0-1.7-1.4-3-3.1-3c-1.7,0-3.1,1.3-3.1,3C49.8,47.2,51.1,48.5,52.8,48.5z"
			/>
		<path fill="#FFFFFF" d="M36.8,48.3h1.7c3.7,0,6.1-1.7,6.1-5.3c0-3.4-2.4-5-6.6-5h-4.9v15.5h3.7V48.3z M36.8,40.6H38
			c1.9,0,2.8,0.8,2.8,2.4c0,1.8-1,2.6-2.6,2.6h-1.4V40.6z"/>
	</g>
</g>
</svg>
