<?xml version="1.0" encoding="utf-8"?>
<!-- Generator: Adobe Illustrator 22.1.0, SVG Export Plug-In . SVG Version: 6.00 Build 0)  -->
<svg version="1.2" baseProfile="tiny" xmlns="http://www.w3.org/2000/svg" xmlns:xlink="http://www.w3.org/1999/xlink" x="0px"
	 y="0px" viewBox="0 0 100 100" xml:space="preserve">
<g id="Document">
</g>
<g id="Content">
	<g>
		<path fill="#FFFFFF" d="M68.5,26H82L63,6v14.5C63,23.5,65.5,26,68.5,26z"/>
		<polygon fill="#FFFFFF" points="27,43.2 27,62.8 42.6,53 		"/>
		<polygon fill="#FFFFFF" points="60.1,42 28.9,42 44.5,51.8 		"/>
		<polygon fill="#FFFFFF" points="28.9,64 60.1,64 44.5,54.2 		"/>
		<path fill="#FFFFFF" d="M68.5,28c-4.1,0-7.5-3.4-7.5-7.5V5H21.7C19.1,5,17,7.2,17,10v80c0,2.8,2.1,5,4.7,5h56.6
			c2.6,0,4.7-2.2,4.7-5V28H68.5z M25,40h39v26H25V40z M64,78H26c-0.6,0-1-0.4-1-1c0-0.6,0.4-1,1-1h38c0.6,0,1,0.4,1,1
			C65,77.6,64.6,78,64,78z M74,72H26c-0.6,0-1-0.4-1-1c0-0.6,0.4-1,1-1h48c0.6,0,1,0.4,1,1C75,71.6,74.6,72,74,72z"/>
		<polygon fill="#FFFFFF" points="62,62.8 62,43.2 46.4,53 		"/>
	</g>
</g>
</svg>
