<?xml version="1.0" encoding="utf-8"?>
<!-- Generator: Adobe Illustrator 22.1.0, SVG Export Plug-In . SVG Version: 6.00 Build 0)  -->
<svg version="1.2" baseProfile="tiny" xmlns="http://www.w3.org/2000/svg" xmlns:xlink="http://www.w3.org/1999/xlink" x="0px"
	 y="0px" viewBox="0 0 100 100" xml:space="preserve">
<g id="Document">
</g>
<g id="Content">
	<g>
		<path fill="#FFFFFF" d="M68.5,26H82L63,6v14.5C63,23.5,65.5,26,68.5,26z"/>
		<path fill="#FFFFFF" d="M68.5,28c-4.1,0-7.5-3.4-7.5-7.5V5H21.7C19.1,5,17,7.2,17,10v80c0,2.8,2.1,5,4.7,5h56.6
			c2.6,0,4.7-2.2,4.7-5V28H68.5z M64.1,48c0.5,0,0.9,0.4,0.9,0.9v0.1c0,0.5-0.4,0.9-0.9,0.9H25.9c-0.5,0-0.9-0.4-0.9-0.9v-0.1
			c0-0.5,0.4-0.9,0.9-0.9H64.1z M55,55c0,0.6-0.4,1-1,1H26c-0.6,0-1-0.4-1-1c0-0.6,0.4-1,1-1h28C54.6,54,55,54.4,55,55z M27.1,35.5
			c0.2-0.3,0.5-0.5,0.9-0.5s0.7,0.2,0.9,0.5l2.1,3.5l2.1-3.5c0.4-0.6,1.4-0.6,1.7,0l2.1,3.5l2.1-3.5c0.4-0.6,1.4-0.6,1.7,0l2.1,3.5
			l2.1-3.5c0.2-0.3,0.5-0.5,0.9-0.5s0.7,0.2,0.9,0.5l2.1,3.5l2.1-3.5c0.4-0.6,1.4-0.6,1.7,0l2.1,3.5l2.1-3.5c0.4-0.6,1.4-0.6,1.7,0
			l3.4,5.9l-1.7,1L57.1,38L55,41.5c-0.4,0.6-1.4,0.6-1.7,0L51.2,38l-2.1,3.5C49,41.8,48.7,42,48.3,42s-0.7-0.2-0.9-0.5L45.4,38
			l-2.1,3.5c-0.4,0.6-1.4,0.6-1.7,0L39.6,38l-2.1,3.5c-0.4,0.6-1.4,0.6-1.7,0L33.8,38l-2.1,3.5c-0.2,0.3-0.5,0.5-0.9,0.5
			s-0.7-0.2-0.9-0.5L27.9,38l-2.6,4.4l-1.7-1L27.1,35.5z M32,86l-7.5-13H29V61h6v12h4.5L32,86z M74,85H46c-0.6,0-1-0.4-1-1
			c0-0.6,0.4-1,1-1h28c0.6,0,1,0.4,1,1C75,84.6,74.6,85,74,85z M45,78.3v-0.5c0-0.4,0.3-0.7,0.7-0.7h23.5c0.4,0,0.7,0.3,0.7,0.7v0.5
			c0,0.4-0.3,0.7-0.7,0.7H45.7C45.3,79,45,78.7,45,78.3z M73.8,71.4L71.2,67l-2.1,3.5C69,70.8,68.7,71,68.3,71s-0.7-0.2-0.9-0.5
			L65.4,67l-2.1,3.5c-0.4,0.6-1.4,0.6-1.7,0L59.6,67l-2.1,3.5c-0.4,0.6-1.4,0.6-1.7,0L53.8,67l-2.1,3.5c-0.2,0.3-0.5,0.5-0.9,0.5
			s-0.7-0.2-0.9-0.5L47.9,67l-2.6,4.4l-1.7-1l3.4-5.9c0.2-0.3,0.5-0.5,0.9-0.5s0.7,0.2,0.9,0.5l2.1,3.5l2.1-3.5
			c0.4-0.6,1.4-0.6,1.7,0l2.1,3.5l2.1-3.5c0.4-0.6,1.4-0.6,1.7,0l2.1,3.5l2.1-3.5c0.2-0.3,0.5-0.5,0.9-0.5s0.7,0.2,0.9,0.5l2.1,3.5
			l2.1-3.5c0.4-0.6,1.4-0.6,1.7,0l3.4,5.9L73.8,71.4z"/>
	</g>
</g>
</svg>
