<?xml version="1.0" encoding="utf-8"?>
<!-- Generator: Adobe Illustrator 22.1.0, SVG Export Plug-In . SVG Version: 6.00 Build 0)  -->
<svg version="1.2" baseProfile="tiny" xmlns="http://www.w3.org/2000/svg" xmlns:xlink="http://www.w3.org/1999/xlink" x="0px"
	 y="0px" viewBox="0 0 100 100" xml:space="preserve">
<g id="Document">
</g>
<g id="Content">
	<g>
		<path fill="#FFFFFF" d="M68.5,26.7H82l-19-20v14.5C63,24.2,65.5,26.7,68.5,26.7z"/>
		<path fill="#FFFFFF" d="M45.3,46.4c-4.8,1.5-8.3,6-8.3,11.3c0,6.6,5.3,11.9,11.9,11.9c0,0,0.1,0,0.1,0l1.8-8.4h-8.4L45.3,46.4z"/>
		<path fill="#FFFFFF" d="M68.5,28.7c-4.1,0-7.5-3.4-7.5-7.5V5.7H21.7c-2.6,0-4.7,2.2-4.7,5v80c0,2.8,2.1,5,4.7,5h56.6
			c2.6,0,4.7-2.2,4.7-5v-62H68.5z M52.7,71.8l-1,4.9l2.9,0.6l-6.7,7.4l-3.1-9.5l2.9,0.6l0.8-3.9C35.4,71,25,57.7,25,57.7
			s9-11.5,20.8-13.8l1.2-6.2l3.9,0.8l-1,5.1c0,0,0,0,0,0c13.8,0,25,14.3,25,14.3S65.2,70.2,52.7,71.8z"/>
		<path fill="#FFFFFF" d="M49.5,45.8l-2.2,11.3h8.5l-2.5,11.6c4.4-1.7,7.6-6,7.6-11.1C60.9,51.3,55.8,46.1,49.5,45.8z"/>
	</g>
</g>
</svg>
