<?xml version="1.0" encoding="utf-8"?>
<!-- Generator: Adobe Illustrator 22.1.0, SVG Export Plug-In . SVG Version: 6.00 Build 0)  -->
<svg version="1.2" baseProfile="tiny" xmlns="http://www.w3.org/2000/svg" xmlns:xlink="http://www.w3.org/1999/xlink" x="0px"
	 y="0px" viewBox="0 0 100 100" xml:space="preserve">
<g id="Document">
</g>
<g id="Content">
	<g>
		<path fill="#FFFFFF" d="M68.5,26H82L63,6v14.5C63,23.5,65.5,26,68.5,26z"/>
		<path fill="#FFFFFF" d="M68.5,28c-4.1,0-7.5-3.4-7.5-7.5V5H21.7C19.1,5,17,7.2,17,10v80c0,2.8,2.1,5,4.7,5h56.6
			c2.6,0,4.7-2.2,4.7-5V28H68.5z M26,40h38c0.6,0,1,0.4,1,1c0,0.6-0.4,1-1,1H26c-0.6,0-1-0.4-1-1C25,40.4,25.4,40,26,40z M26,46h28
			c0.6,0,1,0.4,1,1c0,0.6-0.4,1-1,1H26c-0.6,0-1-0.4-1-1C25,46.4,25.4,46,26,46z M32,85h-6.4v-1.7H28v-5.9l-2,1.2l-1-1.5l3.2-1.9h2
			v8.1H32V85z M25,59c0-0.6,0.4-1,1-1h38c0.6,0,1,0.4,1,1c0,0.6-0.4,1-1,1H26C25.4,60,25,59.6,25,59z M74,81H36c-0.6,0-1-0.4-1-1
			c0-0.6,0.4-1,1-1h38c0.6,0,1,0.4,1,1C75,80.6,74.6,81,74,81z M74,54H26c-0.6,0-1-0.4-1-1c0-0.6,0.4-1,1-1h48c0.6,0,1,0.4,1,1
			C75,53.6,74.6,54,74,54z M75,44.8h-6.4v-1.7H71v-5.9l-2,1.2l-1-1.5l3.2-1.9h2v8.1H75V44.8z"/>
	</g>
</g>
</svg>
